<svg width="101" height="29" viewBox="0 0 101 29" fill="none" xmlns="http://www.w3.org/2000/svg">
<path opacity="0.8" d="M4.5 25C6.98528 25 9 19.4036 9 12.5C9 5.59644 6.98528 0 4.5 0C2.01472 0 0 5.59644 0 12.5C0 19.4036 2.01472 25 4.5 25Z" fill="#60C6FF"/>
<path opacity="0.8" d="M27 23C27 20.2386 21.4036 18 14.5 18C7.59644 18 2 20.2386 2 23C2 25.7614 7.59644 28 14.5 28C21.4036 28 27 25.7614 27 23Z" fill="#FF6C75"/>
<path d="M35.7402 2V23H49.4202V19.4H39.7002V2H35.7402ZM50.5712 15.44C50.5712 20.06 53.7812 23.42 58.2212 23.42C62.2112 23.42 63.9512 21.32 64.9712 19.76L61.8812 17.96C61.3712 19.01 60.2612 20.18 58.1612 20.18C56.0012 20.18 54.5912 18.65 54.4412 16.67H65.2712V15.2C65.2712 10.73 62.3612 7.7 58.0412 7.7C53.6612 7.7 50.5712 10.94 50.5712 15.44ZM54.4712 14.03C54.7712 12.2 55.8812 10.94 58.0112 10.94C59.9612 10.94 61.1612 12.14 61.4312 14.03H54.4712ZM67.1338 11.54L70.1938 13.52C71.1238 11.96 72.3538 10.94 74.3338 10.94C76.3738 10.94 77.4538 12.05 77.4538 13.46V13.82L71.7538 14.45C68.9038 14.75 66.8338 16.4 66.8338 18.77C66.8338 21.62 69.0538 23.42 72.4138 23.42C75.5638 23.42 76.6138 21.89 77.0938 20.9H77.5138V23H81.2338V13.49C81.2338 10.01 78.5938 7.7 74.5438 7.7C70.9138 7.7 68.9038 9.32 67.1338 11.54ZM70.7938 18.56C70.7938 17.69 71.4838 17.18 72.8938 17L77.4538 16.46V16.7C77.4538 18.74 75.9838 20.3 73.3438 20.3C71.6638 20.3 70.7938 19.58 70.7938 18.56ZM84.4009 29H88.1809V20.9H88.5409C89.3209 22.16 90.6409 23.42 93.2809 23.42C97.0009 23.42 100.121 20.12 100.121 15.56C100.121 11 97.0009 7.7 93.2809 7.7C90.6409 7.7 89.3209 8.96 88.5409 10.22H88.1209V8.12H84.4009V29ZM92.2609 20.06C89.9209 20.06 88.1809 18.38 88.1809 15.56C88.1809 12.74 89.9209 11.06 92.2609 11.06C94.5409 11.06 96.3409 12.68 96.3409 15.56C96.3409 18.44 94.5409 20.06 92.2609 20.06Z" fill="#1F1F1F"/>
</svg>
